{"title":"The.Godfather.Part.III.DVDRIP-ZEKTORM","uid":4717736,"size":852163743,"categoryP":"video","categoryS":"movies","magnet":"?xt=urn:btih:fc2c49844657158cb6bed8e1349117c5be1225ff&amp;dn=The.Godfather.Part.III.DVDRIP-ZEKTORM&amp;tr=udp%3A%2F%2Ftracker.openbittorrent.com%3A80&amp;tr=udp%3A%2F%2Fopen.demonii.com%3A1337&amp;tr=udp%3A%2F%2Ftracker.coppersurfer.tk%3A6969&amp;tr=udp%3A%2F%2Fexodus.desync.com%3A6969","seeders":1,"leechers":0,"uploader":"blowley","files":4,"time":1234367034,"description":"Title                            : The Godfather: Part III\nYear                             : 1990\nGenre                            : Crime | Drama | Thriller\niMDB Rate                        : User Rating: 7.6/10   66,725 votes\niMDB URL                         : http://www.imdb.com/title/tt0099674/\nAwards                           : Nominated for 7 Oscars. Another 3 wins &amp; 10 nominations\n\nComplete name                    : The.Godfather.Part.III.DVDRIP-ZEKTORM.mp4\nFormat                           : MPEG-4\nFormat profile                   : Base Media\nCodec ID                         : isom\nFile size                        : 800 MiB\nDuration                         : 2h 50mn\nOverall bit rate                 : 657 Kbps\nSubtitles                        : English, Spanish, French (Format: VobSub)\nSource                           : DVD NTSC\nEncoded date                     : UTC 2009-02-09 20:10:49\n\nVideo\nFormat                           : AVC\nFormat/Info                      : Advanced Video Codec\nFormat profile                   : &lt;a class=&quot;__cf_email__&quot; href=&quot;/cdn-cgi/l/email-protection&quot; data-cfemail=&quot;5a12333d321a166e746b&quot;&gt;[email&amp;#160;protected]&lt;/a&gt;&lt;script cf-hash='f9e31' type=&quot;text/javascript&quot;&gt;\n/* &lt;![CDATA[ */!function(){try{var t=&quot;currentScript&quot;in document?document.currentScript:function(){for(var t=document.getElementsByTagName(&quot;script&quot;),e=t.length;e--;)if(t[e].getAttribute(&quot;cf-hash&quot;))return t[e]}();if(t&amp;&amp;t.previousSibling){var e,r,n,i,c=t.previousSibling,a=c.getAttribute(&quot;data-cfemail&quot;);if(a){for(e=&quot;&quot;,r=parseInt(a.substr(0,2),16),n=2;a.length-n;n+=2)i=parseInt(a.substr(n,2),16)^r,e+=String.fromCharCode(i);e=document.createTextNode(e),c.parentNode.replaceChild(e,c)}}}catch(u){}}();/* ]]&gt; */&lt;/script&gt;\nFormat settings, CABAC           : Yes\nFormat settings, ReFrames        : 10 frames\nCodec ID                         : avc1\nCodec ID/Info                    : Advanced Video Coding\nDuration                         : 2h 50mn\nBit rate mode                    : Variable\nBit rate                         : 569 Kbps\nMaximum bit rate                 : 4843 Kbps\nWidth                            : 704 pixels\nHeight                           : 480 pixels\nDisplay aspect ratio             : 16/9\nFrame rate mode                  : Constant\nFrame rate                       : 23.976 fps\nResolution                       : 24 bits\nColorimetry                      : 4:2:0\nScan type                        : Progressive\nBits/(Pixel*Frame)               : 0.070\nStream size                      : 693 MiB (87%)\nTitle                            : Video\nWriting library                  : x264 core 60 r900 a9af942\n\nAudio\nFormat                           : AAC\nFormat/Info                      : Advanced Audio Codec\nFormat version                   : Version 4\nFormat profile                   : LC\nFormat settings, SBR             : Yes\nFormat settings, PS              : No\nCodec ID                         : 40\nDuration                         : 2h 50mn\nBit rate mode                    : Variable\nBit rate                         : 85.3 Kbps\nMaximum bit rate                 : 109 Kbps\nChannel(s)                       : 2 channels\nChannel positions                : L R\nSampling rate                    : 48.0 KHz\nResolution                       : 16 bits\nStream size                      : 104 MiB (13%)\nTitle                            : English\nLanguage                         : English\n\nNotes                            : Convert to DVD with Nero\n","torrent":{"xt":"urn:btih:fc2c49844657158cb6bed8e1349117c5be1225ff","amp;dn":"The.Godfather.Part.III.DVDRIP-ZEKTORM","amp;tr":["udp%3A%2F%2Ftracker.openbittorrent.com%3A80","udp%3A%2F%2Fopen.demonii.com%3A1337","udp%3A%2F%2Ftracker.coppersurfer.tk%3A6969","udp%3A%2F%2Fexodus.desync.com%3A6969"],"infoHash":"fc2c49844657158cb6bed8e1349117c5be1225ff","infoHashBuffer":{"type":"Buffer","data":[252,44,73,132,70,87,21,140,182,190,216,225,52,145,23,197,190,18,37,255]},"announce":[],"urlList":[]}}